<svg id="Pure" xmlns="http://www.w3.org/2000/svg" viewBox="0 0 1482.08 756.19"><defs><style>.cls-1{fill:#13534b;}.cls-2{fill:#1c3632;}</style></defs><title>Pure_logo</title><g id="Pure-2" data-name="Pure"><path class="cls-1" d="M320.18,55.39A169.8,169.8,0,0,0,263,18c-22-8.87-46.56-13.3-73.06-13.3-49.21,0-96.3,7.81-140.22,23.23a61.74,61.74,0,0,0-29,21.43A57,57,0,0,0,8.92,84.53V584.47A47.91,47.91,0,0,0,23.27,619,47.88,47.88,0,0,0,57.8,633.36,47.88,47.88,0,0,0,92.33,619a47.92,47.92,0,0,0,14.36-34.53v-96.4a259.54,259.54,0,0,0,25.13,8.35A218.47,218.47,0,0,0,190,504.23c26.5,0,51.1-4.44,73.07-13.3a169.75,169.75,0,0,0,57.22-37.38,165.51,165.51,0,0,0,37.06-57.44c8.45-21.86,12.78-46.46,12.78-72.85V185.79c0-26.4-4.33-50.89-12.78-72.86A169,169,0,0,0,320.18,55.39Zm-47.94,272.3c0,27.14-7,47.3-21.22,61.87S216.81,411,189.78,411a173.57,173.57,0,0,1-49.62-7.18,96.21,96.21,0,0,1-33.69-17.95V108.6a335.19,335.19,0,0,1,83.31-10.55c26.92,0,47,7.07,61.24,21.43,14.25,14.57,21.22,34.74,21.22,61.87Z" transform="translate(-8.92 -4.71)"/><path class="cls-1" d="M747.16,4.71a47.88,47.88,0,0,0-34.53,14.36A47.92,47.92,0,0,0,698.27,53.6v347a330.52,330.52,0,0,1-82.46,10.55c-27,0-47.19-7.07-61.76-21.54s-21.54-34.73-21.54-61.76V53.6a47.92,47.92,0,0,0-14.36-34.53,48.68,48.68,0,0,0-69,0A47.88,47.88,0,0,0,434.74,53.6V323.26c0,54.58,16.47,98.82,48.88,131.56s77,49.41,132.19,49.41a425.28,425.28,0,0,0,71.48-6A463.53,463.53,0,0,0,756,481a59.8,59.8,0,0,0,39.91-56.59V53.6a47.88,47.88,0,0,0-14.36-34.53A47.45,47.45,0,0,0,747.16,4.71Z" transform="translate(-8.92 -4.71)"/><path class="cls-1" d="M1078.17,12.1a328.71,328.71,0,0,0-67.37-7.39,135.46,135.46,0,0,0-52.47,10.35,128.73,128.73,0,0,0-43,29,140.07,140.07,0,0,0-28.72,44.45,150.43,150.43,0,0,0-10.77,57.23V455.34a48.89,48.89,0,0,0,97.77,0V143.13c0-14.46,3.59-25.13,11-32.52s15.84-11,26.29-11a158.26,158.26,0,0,1,19.32,1.16c6.55.85,13.3,1.9,19.53,2.85,2.64.53,5.07,1.06,7.08,1.59a48.19,48.19,0,0,0,11.72,1.47,49.82,49.82,0,0,0,33.78-12.77,45,45,0,0,0,15.1-34.32c0-10.55-3.48-20.58-10.45-29.88A46.51,46.51,0,0,0,1078.17,12.1Z" transform="translate(-8.92 -4.71)"/><path class="cls-1" d="M1478.22,112.93a165.47,165.47,0,0,0-37.06-57.43,169.6,169.6,0,0,0-57.22-37.38c-22-8.87-46.56-13.3-73.07-13.3s-51.2,4.43-73.38,13.3c-22.38,8.87-41.81,21.43-57.75,37.38a166.64,166.64,0,0,0-37.06,57.43c-8.45,21.86-12.78,46.36-12.78,72.86V323.26c0,26.5,4.33,51,12.78,72.85a162.7,162.7,0,0,0,37.06,57.44c15.94,15.94,35.37,28.51,57.75,37.38,22.18,8.86,46.88,13.3,73.38,13.3a337.24,337.24,0,0,0,69.06-7.08A272.39,272.39,0,0,0,1445.7,474c17.74-8.44,27.56-23.86,27.56-43.5,0-13.51-5.17-25.44-15.1-34.31-14.14-12.67-34.31-16.9-53.74-8.56a336.12,336.12,0,0,1-46.67,16.79,173.59,173.59,0,0,1-46.88,6.44c-26.71,0-46.77-7.6-61.24-23.23-14.88-16-22.06-37.16-22.06-64.51v-31h203c16.68,0,31.57-6,43-17.42s17.42-26.29,17.42-43V185.58C1491,159.29,1486.67,134.79,1478.22,112.93ZM1393.33,199H1227.57V181.25c0-27,7.07-47.2,21.54-61.77s34.73-21.54,61.76-21.54,47,7.08,61.24,21.43c14.26,14.58,21.22,34.74,21.22,61.88Z" transform="translate(-8.92 -4.71)"/><path class="cls-2" d="M447.62,578.56H344.78a8.29,8.29,0,0,0-6.13,2.53,8.51,8.51,0,0,0-2.53,6.13,7.93,7.93,0,0,0,2.53,6,8.83,8.83,0,0,0,6.13,2.42h42.34V751.82a8.79,8.79,0,0,0,2.64,6.23,8.69,8.69,0,0,0,6.33,2.75,9.22,9.22,0,0,0,8.87-9V595.66h42.55a8.64,8.64,0,0,0,6.13-2.42,7.93,7.93,0,0,0,2.53-6,8.33,8.33,0,0,0-2.53-6.13A8.07,8.07,0,0,0,447.62,578.56Z" transform="translate(-8.92 -4.71)"/><path class="cls-2" d="M600.93,741.16H530.71V674h65.36a8.59,8.59,0,0,0,6.33-2.54,8.77,8.77,0,0,0,2.43-6.12,7.9,7.9,0,0,0-2.53-6,8.82,8.82,0,0,0-6.13-2.43H530.82v-61h68.73a8.65,8.65,0,0,0,6.13-2.43,7.9,7.9,0,0,0,2.53-6,8.26,8.26,0,0,0-2.53-6.12,8.46,8.46,0,0,0-6.13-2.54H524.9a11.9,11.9,0,0,0-12,12V746.44a11.9,11.9,0,0,0,12,12H601a8.26,8.26,0,0,0,6.12-2.54,8.46,8.46,0,0,0,2.54-6.12,7.89,7.89,0,0,0-2.54-6A8.51,8.51,0,0,0,600.93,741.16Z" transform="translate(-8.92 -4.71)"/><path class="cls-2" d="M754.23,741.16H684V585a8.34,8.34,0,0,0-2.74-6.23,8.7,8.7,0,0,0-6.23-2.74,8.34,8.34,0,0,0-6.23,2.74,8.67,8.67,0,0,0-2.75,6.23V746.23a11.9,11.9,0,0,0,12,12h76.12a8.29,8.29,0,0,0,6.13-2.53,8.45,8.45,0,0,0,2.53-6.12,7.88,7.88,0,0,0-2.53-6A8.61,8.61,0,0,0,754.23,741.16Z" transform="translate(-8.92 -4.71)"/><path class="cls-2" d="M907.54,741.16H837.33V674h65.36a8.59,8.59,0,0,0,6.33-2.54,8.82,8.82,0,0,0,2.43-6.12,7.91,7.91,0,0,0-2.54-6,8.8,8.8,0,0,0-6.12-2.43H837.43v-61h68.74a8.62,8.62,0,0,0,6.12-2.43,7.91,7.91,0,0,0,2.54-6,8.26,8.26,0,0,0-2.54-6.12,8.46,8.46,0,0,0-6.12-2.54H831.52a11.92,11.92,0,0,0-12,12V746.44a11.92,11.92,0,0,0,12,12h76.13a8.28,8.28,0,0,0,6.12-2.54,8.46,8.46,0,0,0,2.54-6.12,7.89,7.89,0,0,0-2.54-6A8.36,8.36,0,0,0,907.54,741.16Z" transform="translate(-8.92 -4.71)"/><path class="cls-2" d="M1002.15,604.53c7.81-7.81,18.58-11.82,32.3-11.82a42,42,0,0,1,13.94,2.32,63.12,63.12,0,0,1,13.41,6.65,9.26,9.26,0,0,0,2.43,1.06,9.1,9.1,0,0,0,2.43.21,8.13,8.13,0,0,0,8.44-8.45,7.82,7.82,0,0,0-3.8-7.18,92.09,92.09,0,0,0-18-8.34,59.7,59.7,0,0,0-18.9-3c-18.58,0-33.58,5.59-44.87,16.89s-16.9,26.18-16.9,44.87V699q0,27.4,16.9,44.87c11.29,11.3,26.18,16.9,44.87,16.9a59.91,59.91,0,0,0,18.9-3,91.52,91.52,0,0,0,18-8.34,7.81,7.81,0,0,0,3.8-7.18,8.54,8.54,0,0,0-2.42-6.23,8.22,8.22,0,0,0-6-2.43,18.18,18.18,0,0,0-2.43.21,9.61,9.61,0,0,0-2.43,1.06,61.4,61.4,0,0,1-13.41,6.76,42.16,42.16,0,0,1-13.94,2.43c-13.72,0-24.49-3.91-32.3-11.83s-11.51-18.69-11.51-32.52V637C990.64,623.43,994.44,612.56,1002.15,604.53Z" transform="translate(-8.92 -4.71)"/><path class="cls-2" d="M1190.09,576q-26.14,0-42.34,16.15c-10.77,10.77-16.16,24.92-16.16,42.34v67.89c0,17.42,5.39,31.57,16.16,42.34s24.91,16.15,42.34,16.15,31.56-5.38,42.33-16.15,16.16-24.92,16.16-42.34V634.52c0-17.42-5.39-31.57-16.16-42.34S1207.51,576,1190.09,576Zm40.54,127.22c0,12.68-3.7,22.71-11,30s-17.21,11-29.46,11-22.17-3.69-29.46-11-11-17.31-11-30V634c0-12.77,3.7-22.91,11-30.3s17.21-11,29.46-11,22.17,3.69,29.46,11,11,17.42,11,30.3Z" transform="translate(-8.92 -4.71)"/><path class="cls-2" d="M1442.85,576c-4.11,0-7.28,2-9.5,6.12L1379,687,1324.6,582.15c-2.22-4.12-5.39-6.12-9.5-6.12a9.63,9.63,0,0,0-7.29,3.06,10.13,10.13,0,0,0-3,7.39V751.82a8.51,8.51,0,0,0,2.75,6.23,8.67,8.67,0,0,0,6.23,2.75,8.87,8.87,0,0,0,6.33-2.75,8.63,8.63,0,0,0,2.75-6.23V615.94l46.88,91a10.33,10.33,0,0,0,18.37,0l46.88-91V751.82a8.88,8.88,0,0,0,15.31,6.23,8.55,8.55,0,0,0,2.64-6.23V586.48a9.92,9.92,0,0,0-3-7.39A9.23,9.23,0,0,0,1442.85,576Z" transform="translate(-8.92 -4.71)"/></g></svg>